<svg width="190" height="47" viewBox="0 0 190 47" fill="none" xmlns="http://www.w3.org/2000/svg">
<path d="M56.016 33.636V42H54.924V33.636H56.016ZM61.0811 35.304C61.8811 35.304 62.5291 35.548 63.0251 36.036C63.5211 36.516 63.7691 37.212 63.7691 38.124V42H62.6891V38.28C62.6891 37.624 62.5251 37.124 62.1971 36.78C61.8691 36.428 61.4211 36.252 60.8531 36.252C60.2771 36.252 59.8171 36.432 59.4731 36.792C59.1371 37.152 58.9691 37.676 58.9691 38.364V42H57.8771V35.424H58.9691V36.36C59.1851 36.024 59.4771 35.764 59.8451 35.58C60.2211 35.396 60.6331 35.304 61.0811 35.304ZM68.0009 40.992L70.0409 35.424H71.2049L68.6249 42H67.3529L64.7729 35.424H65.9489L68.0009 40.992ZM78.2795 38.46C78.2795 38.668 78.2675 38.888 78.2435 39.12H72.9875C73.0275 39.768 73.2475 40.276 73.6475 40.644C74.0555 41.004 74.5475 41.184 75.1235 41.184C75.5955 41.184 75.9875 41.076 76.2995 40.86C76.6195 40.636 76.8435 40.34 76.9715 39.972H78.1475C77.9715 40.604 77.6195 41.12 77.0915 41.52C76.5635 41.912 75.9075 42.108 75.1235 42.108C74.4995 42.108 73.9395 41.968 73.4435 41.688C72.9555 41.408 72.5715 41.012 72.2915 40.5C72.0115 39.98 71.8715 39.38 71.8715 38.7C71.8715 38.02 72.0075 37.424 72.2795 36.912C72.5515 36.4 72.9315 36.008 73.4195 35.736C73.9155 35.456 74.4835 35.316 75.1235 35.316C75.7475 35.316 76.2995 35.452 76.7795 35.724C77.2595 35.996 77.6275 36.372 77.8835 36.852C78.1475 37.324 78.2795 37.86 78.2795 38.46ZM77.1515 38.232C77.1515 37.816 77.0595 37.46 76.8755 37.164C76.6915 36.86 76.4395 36.632 76.1195 36.48C75.8075 36.32 75.4595 36.24 75.0755 36.24C74.5235 36.24 74.0515 36.416 73.6595 36.768C73.2755 37.12 73.0555 37.608 72.9995 38.232H77.1515ZM82.9249 35.304C83.7249 35.304 84.3729 35.548 84.8689 36.036C85.3649 36.516 85.6129 37.212 85.6129 38.124V42H84.5329V38.28C84.5329 37.624 84.3689 37.124 84.0409 36.78C83.7129 36.428 83.2649 36.252 82.6969 36.252C82.1209 36.252 81.6609 36.432 81.3169 36.792C80.9809 37.152 80.8129 37.676 80.8129 38.364V42H79.7209V35.424H80.8129V36.36C81.0289 36.024 81.3209 35.764 81.6889 35.58C82.0649 35.396 82.4769 35.304 82.9249 35.304ZM88.7287 36.324V40.2C88.7287 40.52 88.7967 40.748 88.9327 40.884C89.0687 41.012 89.3047 41.076 89.6407 41.076H90.4447V42H89.4607C88.8527 42 88.3967 41.86 88.0927 41.58C87.7887 41.3 87.6367 40.84 87.6367 40.2V36.324H86.7847V35.424H87.6367V33.768H88.7287V35.424H90.4447V36.324H88.7287ZM94.6358 42.108C94.0198 42.108 93.4598 41.968 92.9558 41.688C92.4598 41.408 92.0678 41.012 91.7798 40.5C91.4998 39.98 91.3598 39.38 91.3598 38.7C91.3598 38.028 91.5038 37.436 91.7918 36.924C92.0878 36.404 92.4878 36.008 92.9918 35.736C93.4958 35.456 94.0598 35.316 94.6838 35.316C95.3078 35.316 95.8718 35.456 96.3758 35.736C96.8798 36.008 97.2758 36.4 97.5638 36.912C97.8598 37.424 98.0078 38.02 98.0078 38.7C98.0078 39.38 97.8558 39.98 97.5518 40.5C97.2558 41.012 96.8518 41.408 96.3398 41.688C95.8278 41.968 95.2598 42.108 94.6358 42.108ZM94.6358 41.148C95.0278 41.148 95.3958 41.056 95.7398 40.872C96.0838 40.688 96.3598 40.412 96.5678 40.044C96.7838 39.676 96.8918 39.228 96.8918 38.7C96.8918 38.172 96.7878 37.724 96.5798 37.356C96.3718 36.988 96.0998 36.716 95.7638 36.54C95.4278 36.356 95.0638 36.264 94.6718 36.264C94.2718 36.264 93.9038 36.356 93.5678 36.54C93.2398 36.716 92.9758 36.988 92.7758 37.356C92.5758 37.724 92.4758 38.172 92.4758 38.7C92.4758 39.236 92.5718 39.688 92.7638 40.056C92.9638 40.424 93.2278 40.7 93.5558 40.884C93.8838 41.06 94.2438 41.148 94.6358 41.148ZM100.536 36.492C100.728 36.116 101 35.824 101.352 35.616C101.712 35.408 102.148 35.304 102.66 35.304V36.432H102.372C101.148 36.432 100.536 37.096 100.536 38.424V42H99.4435V35.424H100.536V36.492ZM109.584 35.424L105.624 45.096H104.496L105.792 41.928L103.14 35.424H104.352L106.416 40.752L108.456 35.424H109.584ZM116.533 42.084C115.981 42.084 115.485 41.988 115.045 41.796C114.613 41.596 114.273 41.324 114.025 40.98C113.777 40.628 113.649 40.224 113.641 39.768H114.805C114.845 40.16 115.005 40.492 115.285 40.764C115.573 41.028 115.989 41.16 116.533 41.16C117.053 41.16 117.461 41.032 117.757 40.776C118.061 40.512 118.213 40.176 118.213 39.768C118.213 39.448 118.125 39.188 117.949 38.988C117.773 38.788 117.553 38.636 117.289 38.532C117.025 38.428 116.669 38.316 116.221 38.196C115.669 38.052 115.225 37.908 114.889 37.764C114.561 37.62 114.277 37.396 114.037 37.092C113.805 36.78 113.689 36.364 113.689 35.844C113.689 35.388 113.805 34.984 114.037 34.632C114.269 34.28 114.593 34.008 115.009 33.816C115.433 33.624 115.917 33.528 116.461 33.528C117.245 33.528 117.885 33.724 118.381 34.116C118.885 34.508 119.169 35.028 119.233 35.676H118.033C117.993 35.356 117.825 35.076 117.529 34.836C117.233 34.588 116.841 34.464 116.353 34.464C115.897 34.464 115.525 34.584 115.237 34.824C114.949 35.056 114.805 35.384 114.805 35.808C114.805 36.112 114.889 36.36 115.057 36.552C115.233 36.744 115.445 36.892 115.693 36.996C115.949 37.092 116.305 37.204 116.761 37.332C117.313 37.484 117.757 37.636 118.093 37.788C118.429 37.932 118.717 38.16 118.957 38.472C119.197 38.776 119.317 39.192 119.317 39.72C119.317 40.128 119.209 40.512 118.993 40.872C118.777 41.232 118.457 41.524 118.033 41.748C117.609 41.972 117.109 42.084 116.533 42.084ZM126.588 35.424L122.628 45.096H121.5L122.796 41.928L120.144 35.424H121.356L123.42 40.752L125.46 35.424H126.588ZM130.014 42.108C129.51 42.108 129.058 42.024 128.658 41.856C128.258 41.68 127.942 41.44 127.71 41.136C127.478 40.824 127.35 40.468 127.326 40.068H128.454C128.486 40.396 128.638 40.664 128.91 40.872C129.19 41.08 129.554 41.184 130.002 41.184C130.418 41.184 130.746 41.092 130.986 40.908C131.226 40.724 131.346 40.492 131.346 40.212C131.346 39.924 131.218 39.712 130.962 39.576C130.706 39.432 130.31 39.292 129.774 39.156C129.286 39.028 128.886 38.9 128.574 38.772C128.27 38.636 128.006 38.44 127.782 38.184C127.566 37.92 127.458 37.576 127.458 37.152C127.458 36.816 127.558 36.508 127.758 36.228C127.958 35.948 128.242 35.728 128.61 35.568C128.978 35.4 129.398 35.316 129.87 35.316C130.598 35.316 131.186 35.5 131.634 35.868C132.082 36.236 132.322 36.74 132.354 37.38H131.262C131.238 37.036 131.098 36.76 130.842 36.552C130.594 36.344 130.258 36.24 129.834 36.24C129.442 36.24 129.13 36.324 128.898 36.492C128.666 36.66 128.55 36.88 128.55 37.152C128.55 37.368 128.618 37.548 128.754 37.692C128.898 37.828 129.074 37.94 129.282 38.028C129.498 38.108 129.794 38.2 130.17 38.304C130.642 38.432 131.026 38.56 131.322 38.688C131.618 38.808 131.87 38.992 132.078 39.24C132.294 39.488 132.406 39.812 132.414 40.212C132.414 40.572 132.314 40.896 132.114 41.184C131.914 41.472 131.63 41.7 131.262 41.868C130.902 42.028 130.486 42.108 130.014 42.108ZM135.287 36.324V40.2C135.287 40.52 135.355 40.748 135.491 40.884C135.627 41.012 135.863 41.076 136.199 41.076H137.003V42H136.019C135.411 42 134.955 41.86 134.651 41.58C134.347 41.3 134.195 40.84 134.195 40.2V36.324H133.343V35.424H134.195V33.768H135.287V35.424H137.003V36.324H135.287ZM144.326 38.46C144.326 38.668 144.314 38.888 144.29 39.12H139.034C139.074 39.768 139.294 40.276 139.694 40.644C140.102 41.004 140.594 41.184 141.17 41.184C141.642 41.184 142.034 41.076 142.346 40.86C142.666 40.636 142.89 40.34 143.018 39.972H144.194C144.018 40.604 143.666 41.12 143.138 41.52C142.61 41.912 141.954 42.108 141.17 42.108C140.546 42.108 139.986 41.968 139.49 41.688C139.002 41.408 138.618 41.012 138.338 40.5C138.058 39.98 137.918 39.38 137.918 38.7C137.918 38.02 138.054 37.424 138.326 36.912C138.598 36.4 138.978 36.008 139.466 35.736C139.962 35.456 140.53 35.316 141.17 35.316C141.794 35.316 142.346 35.452 142.826 35.724C143.306 35.996 143.674 36.372 143.93 36.852C144.194 37.324 144.326 37.86 144.326 38.46ZM143.198 38.232C143.198 37.816 143.106 37.46 142.922 37.164C142.738 36.86 142.486 36.632 142.166 36.48C141.854 36.32 141.506 36.24 141.122 36.24C140.57 36.24 140.098 36.416 139.706 36.768C139.322 37.12 139.102 37.608 139.046 38.232H143.198ZM153.676 35.304C154.188 35.304 154.644 35.412 155.044 35.628C155.444 35.836 155.76 36.152 155.992 36.576C156.224 37 156.34 37.516 156.34 38.124V42H155.26V38.28C155.26 37.624 155.096 37.124 154.768 36.78C154.448 36.428 154.012 36.252 153.46 36.252C152.892 36.252 152.44 36.436 152.104 36.804C151.768 37.164 151.6 37.688 151.6 38.376V42H150.52V38.28C150.52 37.624 150.356 37.124 150.028 36.78C149.708 36.428 149.272 36.252 148.72 36.252C148.152 36.252 147.7 36.436 147.364 36.804C147.028 37.164 146.86 37.688 146.86 38.376V42H145.768V35.424H146.86V36.372C147.076 36.028 147.364 35.764 147.724 35.58C148.092 35.396 148.496 35.304 148.936 35.304C149.488 35.304 149.976 35.428 150.4 35.676C150.824 35.924 151.14 36.288 151.348 36.768C151.532 36.304 151.836 35.944 152.26 35.688C152.684 35.432 153.156 35.304 153.676 35.304ZM160.459 42.108C159.955 42.108 159.503 42.024 159.103 41.856C158.703 41.68 158.387 41.44 158.155 41.136C157.923 40.824 157.795 40.468 157.771 40.068H158.899C158.931 40.396 159.083 40.664 159.355 40.872C159.635 41.08 159.999 41.184 160.447 41.184C160.863 41.184 161.191 41.092 161.431 40.908C161.671 40.724 161.791 40.492 161.791 40.212C161.791 39.924 161.663 39.712 161.407 39.576C161.151 39.432 160.755 39.292 160.219 39.156C159.731 39.028 159.331 38.9 159.019 38.772C158.715 38.636 158.451 38.44 158.227 38.184C158.011 37.92 157.903 37.576 157.903 37.152C157.903 36.816 158.003 36.508 158.203 36.228C158.403 35.948 158.687 35.728 159.055 35.568C159.423 35.4 159.843 35.316 160.315 35.316C161.043 35.316 161.631 35.5 162.079 35.868C162.527 36.236 162.767 36.74 162.799 37.38H161.707C161.683 37.036 161.543 36.76 161.287 36.552C161.039 36.344 160.703 36.24 160.279 36.24C159.887 36.24 159.575 36.324 159.343 36.492C159.111 36.66 158.995 36.88 158.995 37.152C158.995 37.368 159.063 37.548 159.199 37.692C159.343 37.828 159.519 37.94 159.727 38.028C159.943 38.108 160.239 38.2 160.615 38.304C161.087 38.432 161.471 38.56 161.767 38.688C162.063 38.808 162.315 38.992 162.523 39.24C162.739 39.488 162.851 39.812 162.859 40.212C162.859 40.572 162.759 40.896 162.559 41.184C162.359 41.472 162.075 41.7 161.707 41.868C161.347 42.028 160.931 42.108 160.459 42.108Z" fill="#8B8B8B"/>
<path d="M54.48 19.232C54.48 17.808 54.72 16.576 55.2 15.536C55.696 14.48 56.368 13.68 57.216 13.136C58.064 12.576 59.016 12.296 60.072 12.296C60.952 12.296 61.712 12.48 62.352 12.848C62.992 13.2 63.48 13.688 63.816 14.312V12.464H69.12V26H63.816V24.152C63.48 24.776 62.992 25.272 62.352 25.64C61.712 25.992 60.952 26.168 60.072 26.168C59.016 26.168 58.064 25.896 57.216 25.352C56.368 24.792 55.696 23.992 55.2 22.952C54.72 21.896 54.48 20.656 54.48 19.232ZM63.816 19.232C63.816 18.512 63.632 17.952 63.264 17.552C62.896 17.152 62.424 16.952 61.848 16.952C61.272 16.952 60.8 17.152 60.432 17.552C60.064 17.952 59.88 18.512 59.88 19.232C59.88 19.952 60.064 20.512 60.432 20.912C60.8 21.312 61.272 21.512 61.848 21.512C62.424 21.512 62.896 21.312 63.264 20.912C63.632 20.512 63.816 19.952 63.816 19.232ZM85.8405 12.464V26H80.5125V23.936C80.0965 24.576 79.5365 25.096 78.8325 25.496C78.1445 25.896 77.3205 26.096 76.3605 26.096C74.8085 26.096 73.5925 25.576 72.7125 24.536C71.8485 23.496 71.4165 22.088 71.4165 20.312V12.464H76.7205V19.64C76.7205 20.28 76.8885 20.792 77.2245 21.176C77.5765 21.544 78.0405 21.728 78.6165 21.728C79.2085 21.728 79.6725 21.544 80.0085 21.176C80.3445 20.792 80.5125 20.28 80.5125 19.64V12.464H85.8405ZM87.5269 19.232C87.5269 17.808 87.7669 16.576 88.2469 15.536C88.7429 14.48 89.4149 13.68 90.2629 13.136C91.1109 12.576 92.0629 12.296 93.1189 12.296C93.9989 12.296 94.7509 12.48 95.3749 12.848C96.0149 13.2 96.5029 13.688 96.8389 14.312V8.24H102.167V26H96.8389V24.152C96.5029 24.776 96.0149 25.272 95.3749 25.64C94.7509 25.992 93.9989 26.168 93.1189 26.168C92.0629 26.168 91.1109 25.896 90.2629 25.352C89.4149 24.792 88.7429 23.992 88.2469 22.952C87.7669 21.896 87.5269 20.656 87.5269 19.232ZM96.8629 19.232C96.8629 18.512 96.6789 17.952 96.3109 17.552C95.9429 17.152 95.4709 16.952 94.8949 16.952C94.3189 16.952 93.8469 17.152 93.4789 17.552C93.1109 17.952 92.9269 18.512 92.9269 19.232C92.9269 19.952 93.1109 20.512 93.4789 20.912C93.8469 21.312 94.3189 21.512 94.8949 21.512C95.4709 21.512 95.9429 21.312 96.3109 20.912C96.6789 20.512 96.8629 19.952 96.8629 19.232ZM107.247 11.384C106.319 11.384 105.575 11.136 105.015 10.64C104.455 10.144 104.175 9.52 104.175 8.768C104.175 8 104.455 7.368 105.015 6.872C105.575 6.36 106.319 6.104 107.247 6.104C108.159 6.104 108.895 6.36 109.455 6.872C110.015 7.368 110.295 8 110.295 8.768C110.295 9.52 110.015 10.144 109.455 10.64C108.895 11.136 108.159 11.384 107.247 11.384ZM109.887 12.464V26H104.559V12.464H109.887ZM118.726 26.168C117.366 26.168 116.142 25.888 115.054 25.328C113.966 24.768 113.11 23.968 112.486 22.928C111.878 21.872 111.574 20.64 111.574 19.232C111.574 17.824 111.878 16.6 112.486 15.56C113.11 14.504 113.966 13.696 115.054 13.136C116.142 12.576 117.366 12.296 118.726 12.296C120.086 12.296 121.31 12.576 122.398 13.136C123.486 13.696 124.334 14.504 124.942 15.56C125.566 16.6 125.878 17.824 125.878 19.232C125.878 20.64 125.566 21.872 124.942 22.928C124.334 23.968 123.486 24.768 122.398 25.328C121.31 25.888 120.086 26.168 118.726 26.168ZM118.726 21.56C119.222 21.56 119.638 21.368 119.974 20.984C120.31 20.584 120.478 20 120.478 19.232C120.478 18.464 120.31 17.888 119.974 17.504C119.638 17.104 119.222 16.904 118.726 16.904C118.23 16.904 117.814 17.104 117.478 17.504C117.142 17.888 116.974 18.464 116.974 19.232C116.974 20 117.134 20.584 117.454 20.984C117.79 21.368 118.214 21.56 118.726 21.56ZM132.88 14.312C133.216 13.688 133.696 13.2 134.32 12.848C134.96 12.48 135.72 12.296 136.6 12.296C137.656 12.296 138.608 12.576 139.456 13.136C140.304 13.68 140.968 14.48 141.448 15.536C141.944 16.576 142.192 17.808 142.192 19.232C142.192 20.656 141.944 21.896 141.448 22.952C140.968 23.992 140.304 24.792 139.456 25.352C138.608 25.896 137.656 26.168 136.6 26.168C135.72 26.168 134.96 25.992 134.32 25.64C133.696 25.272 133.216 24.776 132.88 24.152V32.48H127.552V12.464H132.88V14.312ZM136.792 19.232C136.792 18.512 136.608 17.952 136.24 17.552C135.872 17.152 135.4 16.952 134.824 16.952C134.248 16.952 133.776 17.152 133.408 17.552C133.04 17.952 132.856 18.512 132.856 19.232C132.856 19.952 133.04 20.512 133.408 20.912C133.776 21.312 134.248 21.512 134.824 21.512C135.4 21.512 135.872 21.312 136.24 20.912C136.608 20.512 136.792 19.952 136.792 19.232ZM153.344 12.368C154.896 12.368 156.104 12.888 156.968 13.928C157.848 14.968 158.288 16.376 158.288 18.152V26H152.984V18.824C152.984 18.184 152.808 17.68 152.456 17.312C152.12 16.928 151.664 16.736 151.088 16.736C150.496 16.736 150.032 16.928 149.696 17.312C149.36 17.68 149.192 18.184 149.192 18.824V26H143.864V8.24H149.192V14.528C149.608 13.888 150.16 13.368 150.848 12.968C151.552 12.568 152.384 12.368 153.344 12.368ZM163.286 11.384C162.358 11.384 161.614 11.136 161.054 10.64C160.494 10.144 160.214 9.52 160.214 8.768C160.214 8 160.494 7.368 161.054 6.872C161.614 6.36 162.358 6.104 163.286 6.104C164.198 6.104 164.934 6.36 165.494 6.872C166.054 7.368 166.334 8 166.334 8.768C166.334 9.52 166.054 10.144 165.494 10.64C164.934 11.136 164.198 11.384 163.286 11.384ZM165.926 12.464V26H160.598V12.464H165.926ZM173.661 8.24V26H168.333V8.24H173.661ZM189.171 19.112C189.171 19.48 189.147 19.832 189.099 20.168H180.531C180.611 21.336 181.099 21.92 181.995 21.92C182.571 21.92 182.987 21.656 183.243 21.128H188.883C188.691 22.088 188.283 22.952 187.659 23.72C187.051 24.472 186.275 25.072 185.331 25.52C184.403 25.952 183.379 26.168 182.259 26.168C180.915 26.168 179.715 25.888 178.659 25.328C177.619 24.768 176.803 23.968 176.211 22.928C175.635 21.872 175.347 20.64 175.347 19.232C175.347 17.824 175.635 16.6 176.211 15.56C176.803 14.504 177.619 13.696 178.659 13.136C179.715 12.576 180.915 12.296 182.259 12.296C183.603 12.296 184.795 12.576 185.835 13.136C186.891 13.68 187.707 14.464 188.283 15.488C188.875 16.512 189.171 17.72 189.171 19.112ZM183.771 17.84C183.771 17.392 183.627 17.056 183.339 16.832C183.051 16.592 182.691 16.472 182.259 16.472C181.315 16.472 180.763 16.928 180.603 17.84H183.771Z" fill="black"/>
<path d="M31.4913 12.7192C30.9817 10.5577 30.3239 8.58916 29.5477 6.88335C27.1923 6.19027 24.6502 5.81366 22.0015 5.81366C19.3528 5.81366 16.8049 6.19027 14.4495 6.88335C13.6762 8.58916 13.0184 10.5577 12.5089 12.7192C15.3916 12.0008 18.6062 11.5989 21.9986 11.5989C25.3909 11.5989 28.6026 12.0008 31.4883 12.7192H31.4913Z" fill="black"/>
<path d="M38.5603 23.4985C38.5603 20.666 38.2078 17.9538 37.5589 15.4314C35.962 14.6054 34.1191 13.9029 32.0956 13.3617C32.7681 16.441 33.1444 19.878 33.1444 23.4985C33.1444 27.1189 32.7681 30.5559 32.0956 33.6352C34.1191 33.0909 35.962 32.3883 37.5589 31.5623C38.2078 29.0431 38.5603 26.3278 38.5603 23.4953V23.4985Z" fill="black"/>
<path d="M18.3986 12.2413C16.2802 12.4249 14.2596 12.7604 12.3901 13.2351C11.9457 15.232 11.6287 17.3904 11.4628 19.6532C12.5738 16.1815 15.1514 13.4313 18.3986 12.2445V12.2413Z" fill="#E5FF70"/>
<path d="M32.54 27.3467C31.4289 30.8185 28.8513 33.5687 25.6041 34.7555C27.7225 34.5719 29.7431 34.2364 31.6126 33.7617C32.057 31.7648 32.3711 29.6064 32.54 27.3436V27.3467Z" fill="#E5FF70"/>
<path d="M31.4913 34.2808C28.6026 34.9992 25.391 35.4011 22.0016 35.4011C18.6122 35.4011 15.3946 34.9992 12.5118 34.2808C13.0214 36.4424 13.6792 38.4108 14.4524 40.1166C16.8078 40.8097 19.3529 41.1863 22.0045 41.1863C24.6562 41.1863 27.1953 40.8097 29.5507 40.1166C30.3269 38.4108 30.9847 36.4424 31.4942 34.2808H31.4913Z" fill="black"/>
<path d="M18.3986 34.7587C15.1485 33.5719 12.5738 30.8186 11.4628 27.35C11.6287 29.6128 11.9487 31.7712 12.3901 33.7681C14.2596 34.2428 16.2802 34.5783 18.3986 34.7619V34.7587Z" fill="#E5FF70"/>
<path d="M6.44416 31.5654C8.04109 32.3914 9.88393 33.094 11.9045 33.6383C11.235 30.559 10.8587 27.1221 10.8587 23.5016C10.8587 19.8811 11.235 16.4441 11.9045 13.3648C9.88393 13.9091 8.04109 14.6117 6.44416 15.4346C5.79532 17.9537 5.44275 20.6691 5.44275 23.5016C5.44275 26.334 5.79532 29.0462 6.44416 31.5686V31.5654Z" fill="black"/>
<path d="M43.6386 26.6727C42.5957 28.6665 40.6107 30.4451 37.9442 31.8692C37.4435 33.7554 36.7828 35.5214 35.9828 37.1481C39.9085 34.5403 42.6906 30.8597 43.6386 26.6695V26.6727Z" fill="black"/>
<path d="M8.01728 37.1481C7.21733 35.5214 6.55071 33.7523 6.05593 31.8692C3.38945 30.4451 1.4044 28.6633 0.361511 26.6727C1.3096 30.8597 4.09162 34.5435 8.01728 37.1512V37.1481Z" fill="black"/>
<path d="M6.05593 15.1308C6.55368 13.2446 7.21733 11.4786 8.01728 9.85193C4.09162 12.4597 1.3096 16.1403 0.361511 20.3242C1.4044 18.3367 3.38945 16.5549 6.05593 15.1308Z" fill="black"/>
<path d="M25.6041 12.2413C28.8543 13.4281 31.4289 16.1815 32.54 19.65C32.3681 17.3872 32.0541 15.2289 31.6126 13.2319C29.7431 12.7572 27.7225 12.4217 25.6041 12.2382V12.2413Z" fill="#E5FF70"/>
<path d="M43.6386 20.3242C42.6906 16.1403 39.9085 12.4565 35.9828 9.85193C36.7828 11.4786 37.4435 13.2477 37.9442 15.1308C40.6107 16.5549 42.5957 18.3367 43.6386 20.3242Z" fill="black"/>
<path d="M22.0014 34.9138C27.9035 34.9138 32.6881 29.803 32.6881 23.4985C32.6881 17.1939 27.9035 12.0831 22.0014 12.0831C16.0993 12.0831 11.3147 17.1939 11.3147 23.4985C11.3147 29.803 16.0993 34.9138 22.0014 34.9138Z" fill="black"/>
<path d="M19.0268 46.6139C17.1662 45.503 15.4982 43.3795 14.1619 40.5312C12.4021 39.9963 10.7459 39.2906 9.22302 38.4361C11.6643 42.6294 15.11 45.6011 19.0268 46.6139Z" fill="black"/>
<path d="M29.275 40.6894C26.9907 41.3255 24.5464 41.6737 22.0014 41.6737C19.4564 41.6737 17.0062 41.3255 14.7278 40.6894C16.6359 44.6011 19.1927 47 22.0014 47C24.8101 47 27.367 44.6011 29.275 40.6894Z" fill="#E5FF70"/>
<path d="M5.90775 31.2711C5.31224 28.8311 4.98337 26.2202 4.98337 23.5016C4.98337 20.7831 5.31224 18.1722 5.90775 15.7321C2.24578 17.7702 0 20.5014 0 23.5016C0 26.5018 2.24578 29.233 5.90775 31.2711Z" fill="#E5FF70"/>
<path d="M24.9702 46.6139C28.89 45.6011 32.3386 42.6294 34.774 38.4361C33.2541 39.2906 31.5979 39.9963 29.8351 40.5312C28.5018 43.3795 26.8308 45.4999 24.9702 46.6139Z" fill="black"/>
<path d="M24.9702 0.386108C26.8308 1.50011 28.5018 3.6205 29.8351 6.4688C31.6009 7.00364 33.2541 7.70939 34.774 8.56388C32.3386 4.37056 28.89 1.39883 24.9702 0.386108Z" fill="black"/>
<path d="M38.0922 31.2711C41.7542 29.233 44 26.5018 44 23.5016C44 20.5014 41.7542 17.7702 38.0922 15.7321C38.6877 18.1722 39.0136 20.7831 39.0136 23.5016C39.0136 26.2202 38.6877 28.8311 38.0922 31.2711Z" fill="#E5FF70"/>
<path d="M22.0014 0C19.1927 0 16.6359 2.39889 14.7278 6.31055C17.0092 5.67443 19.4564 5.3263 22.0014 5.3263C24.5464 5.3263 26.9907 5.67443 29.275 6.31055C27.367 2.39889 24.8101 0 22.0014 0Z" fill="#E5FF70"/>
<path d="M9.22302 8.56388C10.7459 7.70939 12.4021 7.00364 14.1619 6.4688C15.4982 3.6205 17.1662 1.50011 19.0268 0.386108C15.11 1.39883 11.6614 4.37056 9.22302 8.56388Z" fill="black"/>
</svg>
